<svg xmlns="http://www.w3.org/2000/svg" xmlns:xlink="http://www.w3.org/1999/xlink" width="500" zoomAndPan="magnify" viewBox="0 0 375 374.999991" height="500" preserveAspectRatio="xMidYMid meet" version="1.0"><defs><g/><clipPath id="df6b143bf6"><path d="M 21.085938 27.183594 L 341.71875 27.183594 L 341.71875 347.816406 L 21.085938 347.816406 Z M 21.085938 27.183594 " clip-rule="nonzero"/></clipPath><clipPath id="881540bbe3"><path d="M 181.402344 27.183594 C 92.863281 27.183594 21.085938 98.960938 21.085938 187.5 C 21.085938 276.039062 92.863281 347.816406 181.402344 347.816406 C 269.945312 347.816406 341.71875 276.039062 341.71875 187.5 C 341.71875 98.960938 269.945312 27.183594 181.402344 27.183594 Z M 181.402344 27.183594 " clip-rule="nonzero"/></clipPath><clipPath id="389efc6168"><path d="M 63.242188 215.710938 L 97.1875 215.710938 L 97.1875 334 L 63.242188 334 Z M 63.242188 215.710938 " clip-rule="nonzero"/></clipPath><clipPath id="8a13e7a9e5"><path d="M 71.492188 215.710938 L 88.9375 215.710938 C 93.492188 215.710938 97.1875 219.402344 97.1875 223.960938 L 97.1875 325.757812 C 97.1875 330.3125 93.492188 334.007812 88.9375 334.007812 L 71.492188 334.007812 C 66.9375 334.007812 63.242188 330.3125 63.242188 325.757812 L 63.242188 223.960938 C 63.242188 219.402344 66.9375 215.710938 71.492188 215.710938 Z M 71.492188 215.710938 " clip-rule="nonzero"/></clipPath><clipPath id="4b593f97fc"><path d="M 250.28125 216.140625 L 351.230469 216.140625 L 351.230469 243.75 L 250.28125 243.75 Z M 250.28125 216.140625 " clip-rule="nonzero"/></clipPath><clipPath id="d98a0bcd76"><path d="M 258.53125 216.140625 L 342.894531 216.140625 C 347.453125 216.140625 351.144531 219.835938 351.144531 224.390625 L 351.144531 235.5 C 351.144531 240.058594 347.453125 243.75 342.894531 243.75 L 258.53125 243.75 C 253.972656 243.75 250.28125 240.058594 250.28125 235.5 L 250.28125 224.390625 C 250.28125 219.835938 253.972656 216.140625 258.53125 216.140625 Z M 258.53125 216.140625 " clip-rule="nonzero"/></clipPath></defs><g clip-path="url(#df6b143bf6)"><g clip-path="url(#881540bbe3)"><path fill="#ffffff" d="M 21.085938 27.183594 L 341.71875 27.183594 L 341.71875 347.816406 L 21.085938 347.816406 Z M 21.085938 27.183594 " fill-opacity="1" fill-rule="nonzero"/></g></g><g fill="#3248df" fill-opacity="1"><g transform="translate(53.304795, 242.969708)"><g><path d="M 111.0625 0 L 111.0625 -41.421875 C 111.0625 -46.546875 111.253906 -51.804688 111.640625 -57.203125 C 112.035156 -62.597656 112.457031 -67.132812 112.90625 -70.8125 C 113.351562 -74.488281 113.628906 -76.828125 113.734375 -77.828125 L 113.0625 -77.828125 L 91.859375 0 L 62.96875 0 L 41.59375 -77.65625 L 40.921875 -77.65625 C 41.023438 -76.65625 41.328125 -74.34375 41.828125 -70.71875 C 42.335938 -67.101562 42.8125 -62.597656 43.25 -57.203125 C 43.695312 -51.804688 43.921875 -46.546875 43.921875 -41.421875 L 43.921875 0 L 10.015625 0 L 10.015625 -114.90625 L 62.125 -114.90625 L 79.5 -48.59375 L 80.171875 -48.59375 L 97.375 -114.90625 L 147.640625 -114.90625 L 147.640625 0 Z M 111.0625 0 "/></g></g></g><path stroke-linecap="butt" transform="matrix(0.528283, 0, 0, 0.528283, 108.254023, 71.179851)" fill="none" stroke-linejoin="miter" d="M 268.314479 325.996839 L 268.314479 243.491935 L 191.43659 243.491935 L 191.43659 325.996839 L 121.590622 325.996839 L 121.590622 108.502734 L 191.43659 108.502734 L 191.43659 187.842903 L 268.314479 187.842903 L 268.314479 108.502734 L 338.160447 108.502734 L 338.160447 325.996839 Z M 268.314479 325.996839 " stroke="#ffffff" stroke-width="35.170799" stroke-opacity="1" stroke-miterlimit="4"/><g fill="#3248df" fill-opacity="1"><g transform="translate(160.133064, 243.400108)"><g><path d="M 89.859375 0 L 89.859375 -43.59375 L 49.265625 -43.59375 L 49.265625 0 L 12.359375 0 L 12.359375 -114.90625 L 49.265625 -114.90625 L 49.265625 -72.984375 L 89.859375 -72.984375 L 89.859375 -114.90625 L 126.765625 -114.90625 L 126.765625 0 Z M 89.859375 0 "/></g></g></g><g clip-path="url(#389efc6168)"><g clip-path="url(#8a13e7a9e5)"><path fill="#3248df" d="M 63.242188 215.710938 L 97.1875 215.710938 L 97.1875 333.980469 L 63.242188 333.980469 Z M 63.242188 215.710938 " fill-opacity="1" fill-rule="nonzero"/></g></g><g clip-path="url(#4b593f97fc)"><g clip-path="url(#d98a0bcd76)"><path fill="#3248df" d="M 250.28125 216.140625 L 351.121094 216.140625 L 351.121094 243.75 L 250.28125 243.75 Z M 250.28125 216.140625 " fill-opacity="1" fill-rule="nonzero"/></g></g><path stroke-linecap="butt" transform="matrix(0.75, -0.000000000000000279, 0.000000000000000279, 0.75, 63.242871, 111.950009)" fill="none" stroke-linejoin="miter" d="M -0.000910996 1.998947 L 69.670969 1.998947 " stroke="#3248df" stroke-width="4" stroke-opacity="1" stroke-miterlimit="4"/><g fill="#0d88fb" fill-opacity="1"><g transform="translate(128.247326, 270.804611)"><g><path d="M 13.09375 0 L 12.40625 -8.640625 L 12.328125 -8.640625 L 9.34375 -0.09375 L 7.359375 -0.09375 L 4.375 -8.640625 L 4.296875 -8.640625 L 3.609375 0 L 0.28125 0 L 1.59375 -14.5625 L 5.125 -14.5625 L 8.34375 -6.15625 L 11.578125 -14.5625 L 15.109375 -14.5625 L 16.421875 0 Z M 13.09375 0 "/></g></g></g><g fill="#0d88fb" fill-opacity="1"><g transform="translate(146.089523, 270.804611)"><g><path d="M 0.40625 -7.296875 C 0.40625 -9.398438 1.125 -11.179688 2.5625 -12.640625 C 4 -14.097656 5.726562 -14.828125 7.75 -14.828125 C 9.789062 -14.828125 11.519531 -14.097656 12.9375 -12.640625 C 14.363281 -11.191406 15.078125 -9.410156 15.078125 -7.296875 C 15.078125 -5.160156 14.375 -3.363281 12.96875 -1.90625 C 11.570312 -0.457031 9.832031 0.265625 7.75 0.265625 C 5.625 0.265625 3.867188 -0.453125 2.484375 -1.890625 C 1.097656 -3.335938 0.40625 -5.140625 0.40625 -7.296875 Z M 3.984375 -7.296875 C 3.984375 -6.523438 4.101562 -5.820312 4.34375 -5.1875 C 4.582031 -4.5625 4.992188 -4.03125 5.578125 -3.59375 C 6.171875 -3.164062 6.894531 -2.953125 7.75 -2.953125 C 8.988281 -2.953125 9.921875 -3.375 10.546875 -4.21875 C 11.179688 -5.0625 11.5 -6.085938 11.5 -7.296875 C 11.5 -8.484375 11.175781 -9.503906 10.53125 -10.359375 C 9.882812 -11.210938 8.957031 -11.640625 7.75 -11.640625 C 6.550781 -11.640625 5.625 -11.210938 4.96875 -10.359375 C 4.3125 -9.503906 3.984375 -8.484375 3.984375 -7.296875 Z M 3.984375 -7.296875 "/></g></g></g><g fill="#0d88fb" fill-opacity="1"><g transform="translate(162.714062, 270.804611)"><g><path d="M 4.375 -5.84375 L 4.375 0 L 1.0625 0 L 1.0625 -14.5625 L 4.375 -14.5625 L 4.375 -8.75 L 9.078125 -8.75 L 9.078125 -14.5625 L 12.390625 -14.5625 L 12.390625 0 L 9.078125 0 L 9.078125 -5.84375 Z M 4.375 -5.84375 "/></g></g></g><g fill="#0d88fb" fill-opacity="1"><g transform="translate(177.309161, 270.804611)"><g><path d="M 8.453125 -14.5625 L 14.34375 0 L 10.765625 0 L 9.6875 -2.90625 L 4.15625 -2.90625 L 3.078125 0 L -0.5 0 L 5.390625 -14.5625 Z M 8.5625 -5.828125 L 6.9375 -10.0625 L 6.90625 -10.0625 L 5.28125 -5.828125 Z M 8.5625 -5.828125 "/></g></g></g><g fill="#0d88fb" fill-opacity="1"><g transform="translate(192.292499, 270.804611)"><g><path d="M 13.09375 0 L 12.40625 -8.640625 L 12.328125 -8.640625 L 9.34375 -0.09375 L 7.359375 -0.09375 L 4.375 -8.640625 L 4.296875 -8.640625 L 3.609375 0 L 0.28125 0 L 1.59375 -14.5625 L 5.125 -14.5625 L 8.34375 -6.15625 L 11.578125 -14.5625 L 15.109375 -14.5625 L 16.421875 0 Z M 13.09375 0 "/></g></g></g><g fill="#0d88fb" fill-opacity="1"><g transform="translate(210.134694, 270.804611)"><g><path d="M 9.390625 -14.5625 L 9.390625 -11.65625 L 4.375 -11.65625 L 4.375 -8.75 L 9.1875 -8.75 L 9.1875 -5.84375 L 4.375 -5.84375 L 4.375 -2.90625 L 9.390625 -2.90625 L 9.390625 0 L 1.0625 0 L 1.0625 -14.5625 Z M 9.390625 -14.5625 "/></g></g></g><g fill="#0d88fb" fill-opacity="1"><g transform="translate(221.517991, 270.804611)"><g><path d="M 1.0625 -14.5625 L 5.28125 -14.5625 C 7.300781 -14.5625 9.03125 -13.867188 10.46875 -12.484375 C 11.90625 -11.109375 12.625 -9.378906 12.625 -7.296875 C 12.625 -5.203125 11.90625 -3.460938 10.46875 -2.078125 C 9.039062 -0.691406 7.3125 0 5.28125 0 L 1.0625 0 Z M 4.375 -2.96875 L 4.890625 -2.96875 C 6.097656 -2.96875 7.085938 -3.375 7.859375 -4.1875 C 8.628906 -5.007812 9.023438 -6.039062 9.046875 -7.28125 C 9.046875 -8.507812 8.660156 -9.535156 7.890625 -10.359375 C 7.117188 -11.179688 6.117188 -11.59375 4.890625 -11.59375 L 4.375 -11.59375 Z M 4.375 -2.96875 "/></g></g></g><g fill="#0d88fb" fill-opacity="1"><g transform="translate(155.459991, 285.984641)"><g><path d="M 4.8125 -3.625 L 4.8125 -6.09375 L 5.53125 -6.09375 L 5.53125 0 L 4.8125 0 L 4.8125 -3.015625 L 1.640625 -3.015625 L 1.640625 0 L 0.921875 0 L 0.921875 -6.09375 L 1.640625 -6.09375 L 1.640625 -3.625 Z M 4.8125 -3.625 "/></g></g></g><g fill="#0d88fb" fill-opacity="1"><g transform="translate(166.967514, 285.984641)"><g><path d="M 5.484375 0 L 4.71875 0 L 4.15625 -1.671875 L 1.5625 -1.671875 L 1 0 L 0.234375 0 L 2.375 -6.09375 L 3.359375 -6.09375 Z M 2.8125 -5.359375 L 1.765625 -2.28125 L 3.953125 -2.28125 L 2.90625 -5.359375 Z M 2.8125 -5.359375 "/></g></g></g><g fill="#0d88fb" fill-opacity="1"><g transform="translate(177.756957, 285.984641)"><g><path d="M 1.578125 0 L 0.921875 0 L 0.921875 -6.09375 L 1.984375 -6.09375 L 3.828125 -0.9375 L 3.921875 -0.9375 L 5.765625 -6.09375 L 6.796875 -6.09375 L 6.796875 0 L 6.125 0 L 6.125 -4.984375 L 6.015625 -5 L 4.203125 0 L 3.5 0 L 1.6875 -5 L 1.578125 -4.984375 Z M 1.578125 0 "/></g></g></g><g fill="#0d88fb" fill-opacity="1"><g transform="translate(190.53782, 285.984641)"><g><path d="M 2.890625 -6.09375 C 3.515625 -6.09375 4.046875 -5.984375 4.484375 -5.765625 C 4.929688 -5.546875 5.273438 -5.207031 5.515625 -4.75 C 5.753906 -4.300781 5.875 -3.734375 5.875 -3.046875 C 5.875 -2.367188 5.753906 -1.800781 5.515625 -1.34375 C 5.273438 -0.882812 4.929688 -0.546875 4.484375 -0.328125 C 4.046875 -0.109375 3.515625 0 2.890625 0 L 0.921875 0 L 0.921875 -6.09375 Z M 2.828125 -0.609375 C 3.335938 -0.609375 3.757812 -0.6875 4.09375 -0.84375 C 4.425781 -1 4.675781 -1.253906 4.84375 -1.609375 C 5.019531 -1.972656 5.109375 -2.453125 5.109375 -3.046875 C 5.109375 -3.640625 5.019531 -4.113281 4.84375 -4.46875 C 4.675781 -4.832031 4.425781 -5.09375 4.09375 -5.25 C 3.757812 -5.40625 3.335938 -5.484375 2.828125 -5.484375 L 1.640625 -5.484375 L 1.640625 -0.609375 Z M 2.828125 -0.609375 "/></g></g></g><g fill="#0d88fb" fill-opacity="1"><g transform="translate(202.078742, 285.984641)"><g><path d="M 2.984375 0 L 2.265625 0 L 2.265625 -2.390625 L 0.15625 -6.09375 L 0.9375 -6.09375 L 2.59375 -3.25 L 2.6875 -3.25 L 4.328125 -6.09375 L 5.09375 -6.09375 L 2.984375 -2.390625 Z M 2.984375 0 "/></g></g></g></svg>